<svg version="1.1" xmlns="http://www.w3.org/2000/svg" x="0" y="0" width="678.6" height="389.9" viewBox="130.7 78 678.6 389.9" enable-background="new 130.729 78.021 678.635 389.885" xml:space="preserve"><path d="M219.4 224.1c-4.4-2.6-8.5-6.6-10.5-10.7 0 0 1.5-3.3 5.3-4.8 3.6-1.5 7.4-0.8 7.4-0.8l8.3 13.3c13.2 0 12.4-17 10.9-32l-10.1-99.6 -12.2-3.1 -0.7-5.5h38.6l0.6 5.3 -12 3h-0.1l10.2 102.9c1.2 12.5 0.4 22.8-6.5 28.9 -4.8 4.4-9.4 6.8-15.2 6.8C228.1 227.6 223.6 226.7 219.4 224.1zM261.4 196.4l-0.5-5.8 9.6-2.6 24.1-107.2h13.1L354 188.6l-0.1-0.5 9.4 2.6 0.7 5.8h-37.2l-0.7-5.8 12.1-2.6 -14.1-35h-35.9l-7.2 35 14.5 2.6 0.7 5.8H261.4zM289.9 145.3h31.1l-20.4-50.4L289.9 145.3zM349.4 142c-6.9-39.3 15.8-63.9 47.8-63.9 9.4 0 19.5 3.1 27.3 7.6l3.3-4.8c0 0 1.4 0.1 2.6 0.8 1.2 0.7 2.3 1.5 2.3 1.5l1.8 10.9 2.9 24.9 -6.1 0.8 -10.5-23c-3.4-5.8-16.6-11.6-24-11.6 -23.1 0-35.8 20.8-29.2 58.1 5.3 30 19.5 46.7 42.7 46.7 7.1 0 16.2-4.8 19.2-9.4l5-23.5 5.6 1 0.9 27.1c-6.3 7.9-18.4 13.1-32.4 13.1C379.4 198.4 356.2 180.3 349.4 142zM464.8 89.1l5.5 52.1 37-52.1 -11.5-2.5 -0.7-5.8h32.9l0.7 5.8 -9.5 2.5 -32.4 41.9 43.8 56.7 10.8 3 0.4 5.8h-37.6l-0.4-5.8 9.8-2.5 0.2 0.1 -33.3-49.2 -9.2 11.7 3.9 37.3 10.5 2.5 0.4 5.8h-37l-0.6-5.2 12.2-3 -10.1-99.1 -10.9-3 -0.6-5.2h36.5l0.6 5.3 -11.4 3H464.8L464.8 89.1zM603.2 116.5l-5.2 1 -9.8-20c-4.8-7.6-12.3-11.7-20.9-11.7 -10.9 0-19.2 7.6-17 19.8 1.1 6.3 7.1 10.9 25.7 21.1 20.1 11.1 29.7 20.3 33.1 39.8 1.9 10.7-1.8 17.9-6.3 22.6 -5.8 6.3-14.4 9.3-25.4 9.3 -7.6 0-16.7-2.8-24.4-7.9L549.6 196c0 0-1.2-0.1-2.5-0.8 -1.2-0.5-2.4-1.7-2.4-1.7l-1.5-11.9 -2.6-22.5 5.3-1 10.2 22.5c4.4 6.1 14.8 9.9 21.2 9.9 6.6 0 11.4-2.5 14.4-6.8 2.6-3.8 4.2-8.1 3.1-14.5 -2-11.7-9.8-19.8-25.3-28.4 -22.3-12.2-31.4-20.3-33.7-33.8 -3.4-19.3 11.7-28.9 31.2-28.9 9.6 0 17.4 2.8 23.6 7.4l2.6-5.2c0 0 1.4 0.1 2.6 0.8s2.3 1.5 2.3 1.5l2.2 13.3L603.2 116.5zM612 140.4c-5.9-34.5 10.6-62.4 43.2-62.4 26.8 0 48.9 13.3 55.9 52.7 6.9 38.8-11.7 67.7-43.5 67.7C645 198.4 619.6 183.6 612 140.4zM694 128.7c-5.2-29.2-19.2-43.5-39.4-43.5 -19.2 0-31.1 19.8-24.4 57.8 6.5 36.7 21.2 47.1 38.9 47.1C694.6 190.2 698.5 154.7 694 128.7zM801.3 196.4L728.3 91.7l12 96.5 12 2.5 0.7 5.8h-34.3l-0.7-5.8 12.2-2.3 -11.4-98.3 -12-3.5 -0.7-5.8h30.3l61.9 90.6 -10.4-82.2 -13-2.5 -0.7-5.8h33.7l0.7 5.8 -10.9 2.5 11.7 107.3H801.3zM151.2 225.1l-10.4-3 0.4-5.2h38.4c16 0 35 5 35 29.2 0 16-8.5 23.8-19.7 26.9 11.2 3.6 20.8 12.3 20.8 29.4 0 23.9-17 30-35 30h-49.9l0.4-5.2 12.7-3L151.2 225.1zM161.4 277.3l-3.5 48.6h21c12.7 0 21.8-5.6 21.8-22.8 0-16.3-9.1-24.8-19.3-25.7H161.4zM165.4 223.3l-3.5 47.4 16.8-0.5c11.1-0.1 20-5.1 20.8-21 0.8-16.7-7.6-24.8-19.3-26h-14.8V223.3zM210.4 332.5l0.5-5.8 10.1-2.6 42.9-107.2h13.1l27.4 107.7v-0.5l8.9 2.6 -0.4 5.8h-37.2l0.4-5.8 12.5-2.6 -7.9-35h-35.9l-13.3 35 14.1 2.6 -0.3 5.8H210.4zM247.8 281.3h31.1l-11.6-50.4L247.8 281.3zM349.1 225.1l-3.6 52.1 46.2-52.1 -11.1-2.5 0.4-5.8h32.9l-0.4 5.8 -9.9 2.5 -39.8 41.9 33.8 56.7 10.2 3 -0.7 5.8h-37.6l0.7-5.8 10.2-2.5 0.1 0.1 -24.5-49.1 -11.2 11.7 -2.6 37.3 10.1 2.5 -0.7 5.8h-37l0.4-5.2 12.7-3 7.4-99.1 -10.4-3 0.4-5.2h36.5l-0.4 5.3 -11.9 3h-0.2V225.1zM468.8 295.7l-1.7-16.3 -27.3-1 -3.6 48.1 44.9-2.1 6.9-19.8 5.5 1 -2.6 27.1h-82l0.4-5.2 12.7-3 7.4-99.1 -10.4-3 0.4-5.2h70.4l2.6 26.8 -5.5 1 -6.9-19.8 -36-2.1 -3.6 49.4 26.9-1 3.3-15.5h6.4l-2.8 40.1h-5.2V295.7zM516.4 225.1l-10.4-3 0.4-5.2h39.3c19.3 0 35 7.6 35 28.4 0 20.6-13.6 29.2-29.4 30.9 6.8 0.7 14.9 4.8 18 15.4l9.4 32.5 10.1 3 -0.7 5.5h-23.8l-10.2-45.4c-1.2-5.1-8.2-7.3-15-7.4l-12.4-0.1 -3.1 44.8 12.5 2.5 -0.7 5.7h-39.4l0.4-5.2 12.7-3L516.4 225.1zM530.6 223.3l-3.6 48.9c4.3 0 13.1-0.4 18-0.5 11.1-0.1 20-7.4 20.8-23.3 0.8-15.8-6.8-23.8-19.3-25.1h-15.8V223.3zM198.6 360.4l-9.9-3 1.2-5.2h39.3c19.3 0 33.7 7.6 30 28.4 -3.6 20.6-18.7 29.2-34.9 30.9 6.6 0.7 14 4.8 15.3 15.4l3.6 32.5 9.6 3 -1.6 5.5h-23.8l-2.3-45.4c-0.2-5.1-7-7.3-13.7-7.4l-12.4-0.1 -11 44.8 12.1 2.5 -1.7 5.8H159.2l1.2-5.2 13.3-3L198.6 360.4zM213.2 358.6l-12.2 48.9c4.3 0 13.1-0.4 18.1-0.5 11.1-0.1 21.3-7.4 24.9-23.3 3.6-15.8-2.6-23.8-14.9-25.1h-15.9V358.6zM279.5 459.5l10.9-41.5 -16-57.8 -10.1-2.3 1.4-5.8h39l-1.5 5.8 -12 2.5 11.5 47.3 -0.1 0.5 35.1-47.8 -13.6-2.5 1.4-5.8h37L361 357.9l-10.8 2.3 -46.1 58.1 -10.4 41.1 9.9 3 -1.2 5.3h-35.5l1.2-5.2L279.5 459.5zM315 467.8l1.5-5.8 10.6-2.6 61.8-107.2h13.1l8.5 107.7 0.1-0.5 8.5 2.6 -1.4 5.8h-37.2l1.4-5.8 13.1-2.6 -1.7-35h-35.9l-19.5 35L351.2 462l-1.4 5.8H315zM361.5 416.6h31.1l-2.7-50.4L361.5 416.6zM501.9 467.8l-36-104.7 -21.9 96.5L455.1 462l-1.4 5.8h-34.3l1.4-5.8 13-2.3 23.3-98.3 -10.8-3.5 1.4-5.8h30.3L508 442.6l18.7-82.2 -12.1-2.5 1.4-5.8h33.7l-1.4 5.8 -11.8 2.5 -26.2 107.3h-8.3V467.8z"/></svg>